# xmcd
#
# Track frame offsets: 
#        150
#        14887
#        34570
#        49992
#        65570
#        81257
#        93807
#        106172
#        125797
#        139985
#        152290
#        165320
#        178670
#        194882
#
# Disc length: 2803 seconds
#
# Revision: 0
# Processed by: cddbd v1.5.2PL0 Copyright (c) Steve Scherf et al.
# Submitted via: ExactAudioCopy v0.99pb5
#
DISCID=c00af10e
DTITLE=Various Artist - Music dreamer vol.5
DYEAR=1900
DGENRE=Country
TTITLE0=Dick and Jane
TTITLE1=Don't cry Joni
TTITLE2=Inside of my guitar
TTITLE3=Season in the sun
TTITLE4=I'd love you to want me
TTITLE5=Sealed with a kiss
TTITLE6=Summer kisses winter tears
TTITLE7=The house of rising sun
TTITLE8=It never rain in southern California
TTITLE9=Your cheating heart
TTITLE10=California dreaming
TTITLE11=Whispering pines
TTITLE12=Jambalaya
TTITLE13=Always on my mind
EXTD=
EXTT0=
EXTT1=
EXTT2=
EXTT3=
EXTT4=
EXTT5=
EXTT6=
EXTT7=
EXTT8=
EXTT9=
EXTT10=
EXTT11=
EXTT12=
EXTT13=
PLAYORDER=
